<svg width="50" height="50" viewBox="0 0 50 50" fill="none" xmlns="http://www.w3.org/2000/svg">
<!--    skills-->
    <g id="StyledComponents">
        <path d="M31.0091 0L30.7388 1.39966C30.3208 4.05212 30.4721 4.81104 31.6182 5.79541L32.7247 6.70459L31.5786 11.7805C30.8938 14.8088 30.0541 17.3468 29.5207 18.1808C29.063 18.9004 28.5296 19.96 28.4142 20.5291C28.2232 21.2092 27.5745 21.8929 26.5834 22.4978C25.7076 22.9918 23.9885 24.3163 22.7703 25.3794C21.7972 26.2493 21.1269 26.7826 20.7629 27.0117L19.5735 27.946C19.1915 28.5546 18.9753 29.0449 18.8924 29.4172C18.8095 29.8003 18.8563 30.0544 18.9789 30.2406C19.0978 30.4196 19.3032 30.5448 19.5843 30.6235C19.9171 30.701 20.2597 30.7288 20.6007 30.7059C21.3722 30.6536 22.1358 30.5192 22.8784 30.3049C23.1307 30.2369 23.3289 30.1725 23.5019 30.1152C23.7686 29.7896 24.3849 29.1738 25.4769 28.1035C28.3746 25.2649 29.481 23.7113 28.3385 24.1301C27.9169 24.2805 28.1079 23.901 28.8323 23.1422C30.3604 21.6638 31.2362 19.4302 33.067 12.4248C34.5159 6.89429 34.5159 6.81555 35.5827 6.81555C36.0836 6.81555 37.5 6.90149 37.5 6.90149L37.5 0L34.2492 0L31.0091 0ZM18.1716 11.8306C17.1192 11.8235 14.8558 13.4164 8.08025 18.9111C7.78833 19.6019 7.76309 20.078 7.89644 20.3859C7.98294 20.597 8.14153 20.7439 8.36137 20.8512C8.57761 20.9586 8.85872 21.0231 9.16867 21.0481C9.78496 21.1018 10.513 21.0051 11.1004 20.8906L11.4969 20.8011C11.6326 20.6204 11.8108 20.4753 12.0159 20.3787C12.4339 20.1497 14.1891 18.5603 15.9443 16.8563C19.0329 13.7493 19.7573 12.3461 18.4995 11.8915C18.3963 11.8507 18.2826 11.8301 18.1716 11.8306ZM26.086 13.9891C25.1598 14.0142 23.4911 15.0809 20.6331 17.3468C19.1987 18.5031 18.2905 19.1259 17.8039 19.2548L15.9154 20.7367C15.2054 22.0254 15.1009 22.8236 15.2883 23.2639C15.3352 23.3726 15.4033 23.4708 15.4887 23.5531C15.5741 23.6355 15.675 23.7002 15.7857 23.7435C16.061 23.8516 16.3546 23.9062 16.6507 23.9047C17.358 23.8971 18.0612 23.7948 18.741 23.6003C19.0953 23.506 19.4452 23.3961 19.7898 23.271L19.8943 23.2281L20.0853 23.1278C20.4457 22.6661 21.2746 21.7963 22.3126 20.7939C25.5923 17.651 27.2681 15.4174 26.9258 14.5834C26.7708 14.1788 26.5041 13.9749 26.086 13.9891ZM17.3498 17.8551C17.0831 17.8838 16.4849 18.3419 15.4073 19.2798C13.8503 20.6472 12.1528 21.4347 11.5654 21.0839C11.4288 21.1145 11.2919 21.1432 11.1545 21.1698C10.5562 21.288 9.8102 21.3846 9.14345 21.3309C8.82928 21.312 8.52138 21.2356 8.23523 21.1053C7.96533 20.9828 7.74994 20.7664 7.62975 20.4968C7.4964 20.1747 7.4964 19.7738 7.64777 19.2618L5.30515 21.1733L0.00360107 25.5298L0.00360107 32.5924L17.3751 19.0006C17.3717 18.8518 17.3911 18.7032 17.4327 18.5603C17.5661 18.0806 17.5589 17.8372 17.3498 17.8586L17.3498 17.8551ZM24.8246 20.1425C24.5615 20.1425 24.1218 20.5112 23.419 21.2522C22.464 22.2651 20.9611 23.246 20.1646 23.4464L20.0421 23.5109C19.9113 23.5645 19.7791 23.6146 19.6456 23.6613C19.4294 23.7328 19.1483 23.8187 18.8239 23.9047C18.1752 24.0801 17.3679 24.2411 16.647 24.2233C16.3072 24.2228 15.9707 24.1571 15.6559 24.0299C15.3593 23.9084 15.1216 23.6775 14.9928 23.3856C14.7838 22.8881 14.8667 22.1901 15.3244 21.1985L0 33.1865L0 37.5L6.73235 37.5L21.0115 26.3602C21.3828 25.9521 21.9414 25.3938 22.6946 24.6957C24.7129 22.8379 25.1706 22.1971 25.1706 21.2485C25.1706 20.5111 25.0877 20.1389 24.8246 20.1389L24.8246 20.1425ZM28.2232 27.1227L27.0014 28.3326C26.3167 28.9769 25.0949 29.7716 24.2588 30.1117L24.093 30.1832L24.0822 30.2012L24.0461 30.2369C24.0137 30.2621 23.9993 30.2656 23.9741 30.2764C23.6403 30.4019 23.3012 30.5129 22.9577 30.6093C22.1941 30.8301 21.4086 30.968 20.6151 31.0209C20.2399 31.0448 19.8632 31.0122 19.4978 30.9242C19.1808 30.855 18.9008 30.6713 18.7122 30.4088C18.5392 30.1439 18.4887 29.7896 18.586 29.3528C18.6634 29.0419 18.7784 28.7415 18.9284 28.4579L7.4063 37.5L22.7307 37.5L24.5615 35.4166C27.0771 32.5028 28.2232 30.4196 28.2232 28.6368L28.2232 27.1227Z" fill="#7572D5" fill-opacity="1.000000" fill-rule="nonzero"/>
    </g>
    <g id="codeSvg">
        <path fill-rule="evenodd" clip-rule="evenodd"
              d="M18.3125 42.0645L27.2623 6.6875L31.4375 7.87241L22.4878 43.3125L18.3125 42.0645Z" fill="#7572D5"/>
        <path fill-rule="evenodd" clip-rule="evenodd"
              d="M13.5025 12.6875L16.5625 15.9278L7.99501 25.0001L16.5625 34.0721L13.5025 37.3125L1.875 25.0001L13.5025 12.6875Z"
              fill="#7572D5"/>
        <path fill-rule="evenodd" clip-rule="evenodd"
              d="M36.4976 12.6875L33.4375 15.9278L42.0051 25.0001L33.4375 34.0721L36.4976 37.3125L48.125 25.0001L36.4976 12.6875Z"
              fill="#7572D5"/>
    </g>
    <g id="css">
        <path d="M32.5524 8.27502L7.4476 8.26892L7.85306 13.1859L27.1397 13.189L26.6535 18.2815L14.005 18.2815L14.4623 23.1055L26.2373 23.1055L25.5407 29.7119L19.9985 31.2198L14.3678 29.7014L14.0096 25.7448L9.03741 25.7448L9.5892 32.9724L19.9985 36.1654L30.2325 33.2965L32.5509 8.27649L32.5524 8.27502ZM0 0L40 0L36.3616 40.4312L19.9558 45L3.64149 40.4281L0 0Z"
              fill="#7572D5" fill-opacity="1.000000" fill-rule="nonzero"/>
    </g>
    <g id="react">
        <path d="M45.625 20.4131C45.625 17.4963 42.5 14.7881 37.2917 12.9131L36.3542 12.6006L36.3542 12.1838C37.5 6.45471 36.6667 2.18384 34.0625 0.621338C31.4583 -0.941162 27.6042 0.517212 23.4375 4.16309L22.8125 4.78809L22.6042 4.57971L22.3958 4.57971C18.125 0.621338 13.9583 -0.732788 11.3542 0.725586C8.75 2.18384 8.02081 6.24634 9.0625 11.5588C9.17206 11.8969 9.242 12.2465 9.27081 12.6006L8.125 13.0172C3.02081 14.7881 0 17.4963 0 20.4131C0 23.3297 3.33331 26.2463 8.54169 28.1213L9.27081 28.3297C9.14215 28.6985 9.07184 29.0851 9.0625 29.4756C8.02081 34.6838 8.95831 38.6422 11.3542 40.1006C13.75 41.5588 18.125 40.2047 22.2917 36.5588L22.9167 36.0381L23.75 36.8713C26.6667 39.3713 29.5833 40.7256 31.875 40.7256C32.6833 40.744 33.4796 40.5269 34.1667 40.1006C36.7708 38.6422 37.7083 34.3713 36.5625 28.9547L36.5625 28.7463C36.5175 28.575 36.4827 28.4011 36.4583 28.2256L36.7708 28.2256C42.2917 26.2463 45.625 23.4338 45.625 20.4131ZM42.6042 20.4131C42.6042 21.6631 40.3125 23.8506 35.8333 25.3088L35.625 25.3088C35.0789 23.6333 34.4176 21.9974 33.6458 20.4131C34.375 18.7463 35 17.0797 35.5208 15.5172L36.3542 15.7256C40.5208 17.1838 42.6042 19.1631 42.6042 20.4131ZM25.7292 34.5797L24.8958 33.9547C26.0886 32.6332 27.2017 31.2418 28.2292 29.7881L33.5417 28.9547C33.6458 29.1631 33.6458 29.3713 33.75 29.4756C34.1212 31.3623 34.1915 33.296 33.9583 35.2047C33.812 36.1176 33.3734 36.9583 32.7083 37.6006C31.6667 38.2256 28.8542 37.3922 25.7292 34.5797ZM24.375 29.9963L22.9167 31.8713L21.25 29.9963L24.375 29.9963ZM10.1042 15.4131C10.6277 17.1305 11.2896 18.8026 12.0833 20.4131C11.2889 22.0591 10.6271 23.7659 10.1042 25.5172L9.47919 25.3088C7.65509 24.7332 5.95789 23.8138 4.47919 22.6006C4.09625 22.3586 3.76855 22.0388 3.51727 21.662C3.26605 21.285 3.09692 20.8596 3.02081 20.4131C3.02081 19.1631 5.10419 17.1838 9.0625 15.8297L10.1042 15.4131ZM21.25 10.8297L22.8125 9.05884L24.375 10.8297L21.25 10.8297ZM32.7083 3.22559C33.8542 3.85059 34.4792 6.97559 33.5417 11.5588C33.5464 11.6154 33.5397 11.6721 33.5218 11.7258C33.5038 11.7795 33.4752 11.8291 33.4375 11.8713L28.2292 11.0381C27.2017 9.58435 26.0886 8.19299 24.8958 6.87134L25.5208 6.35059C28.8542 3.43384 31.5625 2.60059 32.7083 3.22559ZM15.3125 14.2672L14.4792 15.6213L13.75 16.9756C13.4375 16.2463 13.2292 15.5172 12.9167 14.6838L15.3125 14.2672ZM12.9167 26.1422C13.2292 25.4131 13.4375 24.6838 13.75 23.8506L14.4792 25.2047L15.3125 26.5588L12.9167 26.1422ZM30.3125 20.4131C29.7824 21.5552 29.1913 22.6678 28.5417 23.7463C27.9167 24.8922 27.1875 25.9338 26.5625 26.9756L19.0625 26.9756C18.3333 25.8297 17.6042 24.7881 17.0833 23.7463C16.4286 22.6708 15.8373 21.5577 15.3125 20.4131C15.8179 19.2589 16.4099 18.1447 17.0833 17.0797C17.6818 16.0005 18.3427 14.957 19.0625 13.9547C21.5582 13.7465 24.0668 13.7465 26.5625 13.9547C27.2917 14.9963 27.9167 16.0381 28.5417 17.0797C29.2151 18.1447 29.8071 19.2589 30.3125 20.4131ZM31.1458 15.6213L30.3125 14.2672L32.7083 14.7881C32.4764 15.5338 32.1981 16.2644 31.875 16.9756L31.1458 15.6213ZM30.3125 26.5588L31.1458 25.2047L31.875 23.7463L32.8125 26.1422L30.3125 26.5588ZM20.625 6.76721L20.7292 6.76721L17.3958 10.9338L12.1875 11.7672C12.0833 11.4547 12.0833 11.2463 11.9792 10.9338C11.1458 6.66309 11.7708 3.74634 12.8125 3.22559C13.0891 3.04395 13.4225 2.96985 13.75 3.01721C15.2083 3.01721 17.7083 4.05884 20.5208 6.55884L20.625 6.76721ZM11.9792 29.9963C11.9982 29.6748 12.0685 29.3583 12.1875 29.0588L17.5 29.7881C18.5015 31.2612 19.616 32.6543 20.8333 33.9547L20.625 34.1631L20.4167 34.3713C18.9965 35.6869 17.3336 36.713 15.5208 37.3922C15.1232 37.6005 14.6875 37.7263 14.24 37.7621C13.7925 37.798 13.3424 37.7429 12.9167 37.6006C11.7708 36.9756 11.1458 34.1631 11.9792 29.9963Z"
              fill="#7572D5" fill-opacity="1.000000" fill-rule="nonzero"/>
    </g>
    <g id="TS">
        <path d="M0 20L0 40L40 40L40 0L0 0L0 20ZM32.235 18.4066C33.2517 18.66 34.025 19.1117 34.7367 19.8484C35.105 20.2417 35.6517 20.9584 35.695 21.1317C35.7083 21.1816 33.9683 22.3484 32.915 23.0033C32.8767 23.0283 32.7233 22.8633 32.5533 22.61C32.0367 21.86 31.4983 21.5366 30.6733 21.48C29.46 21.3966 28.68 22.0316 28.6867 23.0917C28.6756 23.3523 28.7343 23.6112 28.8567 23.8417C29.1233 24.3933 29.62 24.725 31.1733 25.3966C34.0383 26.63 35.2633 27.4417 36.025 28.5967C36.875 29.885 37.0667 31.9434 36.4883 33.4734C35.855 35.1367 34.28 36.2667 32.0633 36.64C31.3783 36.7617 29.7533 36.7433 29.0167 36.61C27.41 36.3234 25.8867 35.53 24.9467 34.4883C24.5783 34.0834 23.86 33.0217 23.905 32.9467C23.9233 32.92 24.0883 32.8184 24.2717 32.7117C24.4517 32.61 25.1233 32.2217 25.7583 31.8533L26.9083 31.1866L27.15 31.5433C27.4867 32.0566 28.2217 32.7617 28.6667 32.9967C29.9433 33.67 31.695 33.575 32.5583 32.8C32.7319 32.6538 32.8694 32.4694 32.9599 32.2611C33.0504 32.053 33.0915 31.8267 33.08 31.6C33.08 31.1367 33.0217 30.9333 32.78 30.5834C32.47 30.14 31.835 29.7667 30.0317 28.9833C27.9683 28.095 27.08 27.5433 26.2667 26.6666C25.759 26.0881 25.3842 25.4055 25.1683 24.6666C25.0167 24.1017 24.9783 22.6851 25.0983 22.115C25.5233 20.12 27.0283 18.7317 29.2 18.3184C29.905 18.1851 31.5433 18.235 32.235 18.4066ZM22.845 20.0767L22.8583 21.715L17.65 21.715L17.65 36.5083L13.9667 36.5083L13.9667 21.715L8.76334 21.715L8.76334 20.1083C8.76334 19.2184 8.78166 18.475 8.80667 18.4584C8.82666 18.4316 11.995 18.4183 15.835 18.425L22.8267 18.4449L22.845 20.0767Z"
              fill="#7572D5" fill-opacity="1.000000" fill-rule="nonzero"/>
    </g>
    <g id="figma">
        <defs>
            <clipPath id="clip20_1881">
                <rect width="50.000000" height="50.000000" fill="white" fill-opacity="0"/>
            </clipPath>
        </defs>
        <rect width="50.000000" height="50.000000" fill="#FFFFFF" fill-opacity="0"/>
        <g clip-path="url(#clip20_1881)">
            <path d="M17.7083 4.16663C14.2565 4.16663 11.4583 6.96484 11.4583 10.4166C11.4583 13.8684 14.2565 16.6666 17.7083 16.6666L32.2916 16.6666C35.7435 16.6666 38.5416 13.8684 38.5416 10.4166C38.5416 6.96484 35.7435 4.16663 32.2916 4.16663L17.7083 4.16663Z"
                  fill="#7572D5" fill-opacity="1.000000" fill-rule="nonzero"/>
            <path d="M32.2917 18.75C28.8398 18.75 26.0417 21.5481 26.0417 25C26.0417 28.4519 28.8398 31.25 32.2917 31.25C35.7437 31.25 38.5417 28.4519 38.5417 25C38.5417 21.5481 35.7437 18.75 32.2917 18.75Z"
                  fill="#7572D5" fill-opacity="1.000000" fill-rule="nonzero"/>
            <path d="M11.4583 25C11.4583 21.5481 14.2565 18.75 17.7083 18.75L23.9583 18.75L23.9583 31.25L17.7083 31.25C14.2565 31.25 11.4583 28.4519 11.4583 25Z"
                  fill="#7572D5" fill-opacity="1.000000" fill-rule="nonzero"/>
            <path d="M17.7083 33.3333C14.2565 33.3333 11.4583 36.1313 11.4583 39.5833C11.4583 43.0352 14.2565 45.8333 17.7083 45.8333C21.1602 45.8333 23.9583 43.0352 23.9583 39.5833L23.9583 33.3333L17.7083 33.3333Z"
                  fill="#7572D5" fill-opacity="1.000000" fill-rule="nonzero"/>
        </g>

        </g>
<!--    social icons-->
    <path id="inst" d="M13.6516 0.0999756H3.34844C1.55687 0.0999756 0.0999985 1.55628 0.0999985 3.34715V6.77799V13.6528C0.0999985 15.4437 1.55687 16.9 3.34844 16.9H13.6516C15.4431 16.9 16.9 15.4437 16.9 13.6528V6.77143V3.34058C16.8934 1.55628 15.4366 0.0999756 13.6516 0.0999756ZM14.5834 2.03516H14.9575V2.40251V4.88217L12.1159 4.88873L12.1094 2.04172L14.5834 2.03516ZM6.09812 6.77143C6.63625 6.03016 7.50906 5.53816 8.49343 5.53816C9.47781 5.53816 10.3506 6.0236 10.8887 6.77143C11.2431 7.25687 11.4466 7.85382 11.4466 8.4967C11.4466 10.1236 10.1209 11.4552 8.48687 11.4552C6.85281 11.4552 5.54031 10.1236 5.54031 8.4967C5.54031 7.85382 5.75031 7.25687 6.09812 6.77143ZM15.2594 13.6462C15.2594 14.5318 14.5375 15.2534 13.6516 15.2534H3.34844C2.4625 15.2534 1.74062 14.5318 1.74062 13.6462V6.77143H4.2475C4.03094 7.30279 3.90625 7.88662 3.90625 8.4967C3.90625 11.0288 5.96687 13.0887 8.5 13.0887C11.0331 13.0887 13.0937 11.0288 13.0937 8.4967C13.0937 7.88662 12.9691 7.30279 12.7525 6.77143H15.2594V13.6462Z" fill="#7572D5"/>
    <path id="tg" d="M16.9057 1.76449L14.3705 13.7208C14.1791 14.5644 13.6804 14.7745 12.9717 14.3772L9.10852 11.5305L7.24472 13.3235C7.0383 13.5299 6.86608 13.7022 6.46824 13.7022L6.74607 9.76814L13.9054 3.29885C14.2169 3.02162 13.8376 2.86741 13.4218 3.14524L4.57084 8.71863L0.760432 7.5257C-0.0682556 7.26707 -0.0832572 6.69701 0.933251 6.29917L15.837 0.557163C16.5271 0.298535 17.1308 0.710179 16.9057 1.76449Z" fill="#1F1F20"/>
    <path id="vk" d="M16.1696 7.99409C15.8038 7.53913 15.3881 7.13136 14.9861 6.73701C14.8432 6.59676 14.6954 6.45176 14.5529 6.30758C14.1439 5.8932 14.129 5.73752 14.4529 5.26684C14.6769 4.9424 14.9145 4.61753 15.1442 4.30335C15.3526 4.01829 15.568 3.72351 15.7746 3.42777L15.817 3.36697C16.2117 2.80103 16.6199 2.21583 16.8372 1.50988C16.8936 1.32363 16.9528 1.04955 16.8174 0.820364C16.682 0.591372 16.4195 0.521511 16.2337 0.48888C16.1418 0.472732 16.0506 0.470528 15.9659 0.470528L13.3809 0.468611L13.3595 0.46842C12.9687 0.46842 12.7053 0.65927 12.5544 1.05194C12.4103 1.42713 12.252 1.82665 12.0714 2.20653C11.7119 2.96298 11.2554 3.83425 10.5948 4.56089L10.5669 4.5918C10.4889 4.67867 10.4005 4.77704 10.3359 4.77704C10.326 4.77704 10.3152 4.77508 10.303 4.7711C10.1662 4.71586 10.0744 4.37263 10.0785 4.21298C10.0786 4.21077 10.0786 4.20857 10.0786 4.20636L10.0768 1.1105C10.0768 1.09976 10.0761 1.08913 10.0747 1.07849C10.009 0.575225 9.86332 0.261948 9.31294 0.150256C9.29832 0.147237 9.28339 0.145752 9.2685 0.145752H6.5806C6.14268 0.145752 5.90138 0.330181 5.67456 0.606227C5.61334 0.680018 5.48589 0.833637 5.54906 1.01998C5.61315 1.20911 5.8212 1.24955 5.88894 1.26268C6.22522 1.32899 6.41477 1.54213 6.46846 1.91453C6.56219 2.56121 6.57371 3.25144 6.50471 4.08676C6.48547 4.31892 6.44742 4.49822 6.38471 4.65141C6.37015 4.68715 6.31849 4.80383 6.26582 4.80388C6.24908 4.80388 6.20067 4.79707 6.11248 4.73411C5.90397 4.5861 5.75142 4.37488 5.57357 4.11398C4.96853 3.22796 4.46074 2.25191 4.02097 1.12938C3.85787 0.716146 3.55327 0.484807 3.16289 0.478003C2.73395 0.471247 2.34504 0.467988 1.97413 0.467988C1.56886 0.467988 1.19314 0.47187 0.82625 0.479776C0.512169 0.485526 0.294921 0.583083 0.180609 0.769956C0.0661124 0.956973 0.0735575 1.20264 0.202759 1.50001C1.23702 3.88254 2.17478 5.61486 3.24345 7.11713C3.99225 8.16831 4.74333 8.89592 5.60686 9.40676C6.51664 9.94605 7.5362 10.2083 8.72371 10.2083C8.85833 10.2083 8.99752 10.2048 9.13786 10.198C9.8279 10.1632 10.0839 9.90441 10.1163 9.20824C10.1317 8.85246 10.1692 8.47934 10.338 8.16113C10.4445 7.96064 10.5439 7.96064 10.5765 7.96064C10.6394 7.96064 10.7174 7.99064 10.8011 8.04685C10.9513 8.14843 11.0801 8.28451 11.1857 8.40339C11.285 8.51633 11.3833 8.63042 11.4817 8.74455C11.6939 8.99089 11.9134 9.24557 12.1427 9.48711C12.6445 10.0162 13.1973 10.2488 13.8323 10.1983H16.2023C16.2073 10.1983 16.2124 10.1981 16.2175 10.1978C16.4536 10.1817 16.6582 10.0459 16.7786 9.8254C16.9279 9.55223 16.9249 9.20373 16.7706 8.89295C16.5956 8.54153 16.3685 8.24129 16.1696 7.99409Z" fill="#7572D5"/>
</svg>