<svg width="50" height="50" viewBox="0 0 50 50" fill="none" xmlns="http://www.w3.org/2000/svg">
    <!--    skills-->
    <g id="html">
        <path fill-rule="evenodd" clip-rule="evenodd"
              d="M18.3125 42.0645L27.2623 6.6875L31.4375 7.87241L22.4878 43.3125L18.3125 42.0645Z" fill="#e16216"/>
        <path fill-rule="evenodd" clip-rule="evenodd"
              d="M13.5025 12.6875L16.5625 15.9278L7.99501 25.0001L16.5625 34.0721L13.5025 37.3125L1.875 25.0001L13.5025 12.6875Z"
              fill="#e16216"/>
        <path fill-rule="evenodd" clip-rule="evenodd"
              d="M36.4976 12.6875L33.4375 15.9278L42.0051 25.0001L33.4375 34.0721L36.4976 37.3125L48.125 25.0001L36.4976 12.6875Z"
              fill="#e16216"/>
    </g>
    <g id="css">
        <svg width="50" height="50" viewBox="0 0 50 50" fill="none" xmlns="http://www.w3.org/2000/svg">
            <path d="M38.0508 10.8437L12.946 10.8377L13.3515 15.7547L32.6381 15.7577L32.1519 20.8502H19.5035L19.9608 25.6742H31.7358L31.0392 32.2806L25.4969 33.7886L19.8663 32.2701L19.508 28.3134H14.5359L15.0877 35.5411L25.4969 38.7341L35.7309 35.8652L38.0493 10.8452L38.0508 10.8437ZM5.49844 2.56873H45.4984L41.86 42.9999L25.4542 47.5687L9.13993 42.9968L5.49844 2.56873Z"
                  fill="#e16216"/>
        </svg>
    </g>
    <g id="react">
        <svg width="50" height="50" viewBox="0 0 50 50" fill="none" xmlns="http://www.w3.org/2000/svg">
            <g clip-path="url(#clip0_20_1854)">
                <path d="M47.8125 25C47.8125 22.0833 44.6875 19.375 39.4792 17.5L38.5417 17.1875V16.7708C39.6875 11.0416 38.8542 6.7708 36.25 5.2083C33.6458 3.6458 29.7917 5.10414 25.625 8.74997L25 9.37497L24.7917 9.16664H24.5833C20.3125 5.2083 16.1458 3.85414 13.5417 5.31247C10.9375 6.7708 10.2083 10.8333 11.25 16.1458C11.3596 16.4838 11.4295 16.8333 11.4583 17.1875L10.3125 17.6041C5.20833 19.375 2.1875 22.0833 2.1875 25C2.1875 27.9166 5.52083 30.8333 10.7292 32.7083L11.4583 32.9166C11.3296 33.2854 11.2593 33.672 11.25 34.0625C10.2083 39.2708 11.1458 43.2291 13.5417 44.6875C15.9375 46.1458 20.3125 44.7916 24.4792 41.1458L25.1042 40.625L25.9375 41.4583C28.8542 43.9583 31.7708 45.3125 34.0625 45.3125C34.8708 45.3309 35.6671 45.1137 36.3542 44.6875C38.9583 43.2291 39.8958 38.9583 38.75 33.5416V33.3333C38.705 33.1619 38.6702 32.988 38.6458 32.8125H38.9583C44.4792 30.8333 47.8125 28.0208 47.8125 25ZM44.7917 25C44.7917 26.25 42.5 28.4375 38.0208 29.8958H37.8125C37.2664 28.2202 36.6051 26.5843 35.8333 25C36.5625 23.3333 37.1875 21.6666 37.7083 20.1041L38.5417 20.3125C42.7083 21.7708 44.7917 23.75 44.7917 25ZM27.9167 39.1666L27.0833 38.5416C28.2761 37.2201 29.3891 35.8287 30.4167 34.375L35.7292 33.5416C35.8333 33.75 35.8333 33.9583 35.9375 34.0625C36.3087 35.9492 36.379 37.8829 36.1458 39.7916C35.9995 40.7045 35.5608 41.5452 34.8958 42.1875C33.8542 42.8125 31.0417 41.9791 27.9167 39.1666ZM26.5625 34.5833L25.1042 36.4583L23.4375 34.5833H26.5625ZM12.2917 20C12.8152 21.7174 13.4771 23.3895 14.2708 25C13.4765 26.646 12.8146 28.3528 12.2917 30.1041L11.6667 29.8958C9.84256 29.3201 8.1454 28.4008 6.66667 27.1875C6.28377 26.9455 5.95605 26.6257 5.7048 26.2488C5.45356 25.872 5.2844 25.4465 5.20833 25C5.20833 23.75 7.29167 21.7708 11.25 20.4166L12.2917 20ZM23.4375 15.4166L25 13.6458L26.5625 15.4166H23.4375ZM34.8958 7.81247C36.0417 8.43747 36.6667 11.5625 35.7292 16.1458C35.734 16.2022 35.7272 16.2591 35.7093 16.3128C35.6914 16.3665 35.6627 16.416 35.625 16.4583L30.4167 15.625C29.3891 14.1712 28.2761 12.7799 27.0833 11.4583L27.7083 10.9375C31.0417 8.0208 33.75 7.18747 34.8958 7.81247ZM17.5 18.8541L16.6667 20.2083L15.9375 21.5625C15.625 20.8333 15.4167 20.1041 15.1042 19.2708L17.5 18.8541ZM15.1042 30.7291C15.4167 30 15.625 29.2708 15.9375 28.4375L16.6667 29.7916L17.5 31.1458L15.1042 30.7291ZM32.5 25C31.9699 26.142 31.3788 27.2548 30.7292 28.3333C30.1042 29.4791 29.375 30.5208 28.75 31.5625H21.25C20.5208 30.4166 19.7917 29.375 19.2708 28.3333C18.6161 27.2577 18.0248 26.1447 17.5 25C18.0054 23.8458 18.5974 22.7315 19.2708 21.6666C19.8693 20.5874 20.5301 19.544 21.25 18.5416C23.7457 18.3334 26.2543 18.3334 28.75 18.5416C29.4792 19.5833 30.1042 20.625 30.7292 21.6666C31.4026 22.7315 31.9946 23.8458 32.5 25ZM33.3333 20.2083L32.5 18.8541L34.8958 19.375C34.6639 20.1208 34.3856 20.8514 34.0625 21.5625L33.3333 20.2083ZM32.5 31.1458L33.3333 29.7916L34.0625 28.3333L35 30.7291L32.5 31.1458ZM22.8125 11.3541H22.9167L19.5833 15.5208L14.375 16.3541C14.2708 16.0416 14.2708 15.8333 14.1667 15.5208C13.3333 11.25 13.9583 8.3333 15 7.81247C15.2766 7.63082 15.61 7.55672 15.9375 7.60414C17.3958 7.60414 19.8958 8.6458 22.7083 11.1458L22.8125 11.3541ZM14.1667 34.5833C14.1857 34.2617 14.256 33.9452 14.375 33.6458L19.6875 34.375C20.689 35.8481 21.8034 37.2412 23.0208 38.5416L22.8125 38.75L22.6042 38.9583C21.184 40.2738 19.5211 41.2999 17.7083 41.9791C17.3107 42.1874 16.875 42.3133 16.4275 42.3491C15.98 42.3849 15.5299 42.3299 15.1042 42.1875C13.9583 41.5625 13.3333 38.75 14.1667 34.5833Z"
                      fill="#e16216"/>
                <path d="M25 20.4166C24.0894 20.3959 23.1932 20.647 22.4259 21.1379C21.6586 21.6287 21.0549 22.3371 20.692 23.1726C20.3291 24.008 20.2233 24.9327 20.3882 25.8285C20.5532 26.7243 20.9812 27.5507 21.6179 28.2022C22.2545 28.8536 23.0709 29.3006 23.9627 29.4861C24.8545 29.6715 25.7813 29.587 26.6249 29.2434C27.4685 28.8998 28.1905 28.3126 28.6989 27.5568C29.2073 26.801 29.4789 25.9108 29.4792 24.9999C29.4795 23.8022 29.0109 22.6519 28.1738 21.7953C27.3366 20.9387 26.1974 20.4438 25 20.4166Z"
                      fill="#e16216"/>
            </g>
            <defs>
                <clipPath id="clip0_20_1854">
                    <rect width="50" height="50" fill="white"/>
                </clipPath>
            </defs>
        </svg>
    </g>
    <g id="ts">
        <svg width="50" height="50" viewBox="0 0 50 50" fill="none" xmlns="http://www.w3.org/2000/svg">
            <path d="M5 25V45H45V5H5V25ZM37.235 23.4067C38.2517 23.66 39.025 24.1117 39.7367 24.8483C40.105 25.2417 40.6517 25.9583 40.695 26.1317C40.7083 26.1817 38.9683 27.3483 37.915 28.0033C37.8767 28.0283 37.7233 27.8633 37.5533 27.61C37.0367 26.86 36.4983 26.5367 35.6733 26.48C34.46 26.3967 33.68 27.0317 33.6867 28.0917C33.6756 28.3523 33.7343 28.6112 33.8567 28.8417C34.1233 29.3933 34.62 29.725 36.1733 30.3967C39.0383 31.63 40.2633 32.4417 41.025 33.5967C41.875 34.885 42.0667 36.9433 41.4883 38.4733C40.855 40.1367 39.28 41.2667 37.0633 41.64C36.3783 41.7617 34.7533 41.7433 34.0167 41.61C32.41 41.3233 30.8867 40.53 29.9467 39.4883C29.5783 39.0833 28.86 38.0217 28.905 37.9467C28.9233 37.92 29.0883 37.8183 29.2717 37.7117C29.4517 37.61 30.1233 37.2217 30.7583 36.8533L31.9083 36.1867L32.15 36.5433C32.4867 37.0567 33.2217 37.7617 33.6667 37.9967C34.9433 38.67 36.695 38.575 37.5583 37.8C37.7319 37.6538 37.8694 37.4693 37.9599 37.2612C38.0504 37.053 38.0915 36.8267 38.08 36.6C38.08 36.1367 38.0217 35.9333 37.78 35.5833C37.47 35.14 36.835 34.7667 35.0317 33.9833C32.9683 33.095 32.08 32.5433 31.2667 31.6667C30.759 31.0881 30.3841 30.4055 30.1683 29.6667C30.0167 29.1017 29.9783 27.685 30.0983 27.115C30.5233 25.12 32.0283 23.7317 34.2 23.3183C34.905 23.185 36.5433 23.235 37.235 23.4067ZM27.845 25.0767L27.8583 26.715H22.65V41.5083H18.9667V26.715H13.7633V25.1083C13.7633 24.2183 13.7817 23.475 13.8067 23.4583C13.8267 23.4317 16.995 23.4183 20.835 23.425L27.8267 23.445L27.845 25.0767Z"
                  fill="#e16216"/>
        </svg>
    </g>
    <g id="pixso">
        <svg width="50" height="50" viewBox="0 0 50 50" fill="none" xmlns="http://www.w3.org/2000/svg">
            <desc>Создано с Pixso.</desc>
            <defs>
                <clipPath id="clipPixso">
                    <rect width="50" height="50" fill="white" fill-opacity="0"/>
                </clipPath>
            </defs>
            <rect width="50" height="50" fill="#FFFFFF" fill-opacity="0"/>
            <g clip-path="url(#clipPixso)">
                <path d="M10 10 H40 V40 H10 Z" fill="#61DAFB"/>
            </g>
        </svg>
    </g>
    <g id="js">
        <svg fill="#e16216" width="50px" height="50px" viewBox="0 0 14.00 14.00" role="img" focusable="false"
             aria-hidden="true" xmlns="http://www.w3.org/2000/svg" stroke="#c58e30" stroke-width="0.21000000000000002">
            <g id="SVGRepo_bgCarrier" stroke-width="0"></g>
            <g id="SVGRepo_tracerCarrier" stroke-linecap="round" stroke-linejoin="round"></g>
            <g id="SVGRepo_iconCarrier">
                <path d="m 5.868485,12.493589 c -0.48791,-0.2883 -0.90366,-0.5407 -0.92387,-0.561 -0.0202,-0.02 0.15951,-0.1208 0.3994,-0.2237 l 0.43617,-0.1869 0.55527,0.3254 c 0.3054,0.179 0.61154,0.3247 0.68031,0.3238 0.0688,-9e-4 1.09678,-0.5627 2.28446,-1.2485 l 2.15943,-1.2467996 0,-2.6593 0,-2.6593 -2.15943,-1.2534 c -1.18768,-0.6893 -2.21273,-1.2546 -2.27788,-1.2561 -0.0652,-10e-4 -1.10027,0.5633 -2.30027,1.2549 l -2.1818,1.2576 -0.0249,2.6348 -0.0249,2.6347 0.72909,0.4247996 c 0.69449,0.4047 1.07393,0.5086 1.30183,0.3564 0.28509,-0.1904 0.31919,-0.5186996 0.31919,-3.0728996 l 0,-2.5938 0.35208,0.029 0.35209,0.029 0.0248,2.8243 c 0.0247,2.8087996 0.0237,2.8258996 -0.19059,3.1451996 -0.29398,0.4381 -0.87921,0.6291 -1.45552,0.475 -0.481,-0.1287 -1.78964,-0.8627 -2.04894,-1.1493 -0.16816,-0.1858996 -0.17919,-0.3759996 -0.17919,-3.0888996 0,-2.6722 0.013,-2.9052 0.17225,-3.0811 0.2703,-0.2986 4.88644,-2.92770004 5.14007,-2.92750004 0.25583,3.0004e-4 4.6989,2.52390004 5.06233,2.87540004 l 0.23472,0.227 0,2.9063 0,2.9063 -0.23472,0.2296996 c -0.19757,0.1933 -3.61169,2.2228 -4.57239,2.718 -0.46713,0.2407 -0.67716,0.1931 -1.62906,-0.3694 z m 1.44358,-2.7091996 c -0.87553,-0.2738 -1.30705,-0.7383 -1.36608,-1.4704 -0.0256,-0.3175 -0.0234,-0.3193 0.41172,-0.3475 0.41906,-0.027 0.44008,-0.016 0.49982,0.2557 0.13773,0.6271 0.88818,0.93 2.04447,0.8251 0.72834,-0.066 1.05545,-0.2935 1.05545,-0.734 0,-0.2714 -0.0486,-0.3417 -0.32861,-0.4759 -0.18073,-0.087 -0.72998,-0.2039 -1.22054,-0.2608 -0.49057,-0.057 -1.09138,-0.1686 -1.33514,-0.2482 -1.44856,-0.4735 -1.26873,-2.3669 0.26138,-2.7522 0.50799,-0.1279 1.66812,-0.1316 2.11757,-0.01 0.74685,0.2074 1.25803,0.7525 1.31948,1.4068 0.0308,0.3281 0.0302,0.3287 -0.3922,0.3563 -0.41555,0.027 -0.42637,0.02 -0.61027,-0.3756 -0.22179,-0.4776 -0.5489,-0.6246 -1.40777,-0.6325 -0.76434,-0.01 -1.2101,0.2153 -1.24957,0.6231 -0.0394,0.4065 0.21476,0.5231 1.57818,0.7241 1.41578,0.2086 1.98633,0.472 2.20468,1.0177 0.35736,0.8932 -0.13704,1.7734 -1.16806,2.0795 -0.60826,0.1807 -1.8607,0.1887 -2.41451,0.016 z"></path>
            </g>
        </svg>
    </g>
    <g id="tilda">
        <svg width="50.000000" height="50.000000" viewBox="0 0 50 50" fill="none" xmlns="http://www.w3.org/2000/svg">
            <desc>Создано с Pixso.</desc>
            <defs>
                <clipPath id="clipTilda">
                    <rect width="50.000000" height="50.000000" fill="white" fill-opacity="0"/>
                </clipPath>
            </defs>
            <rect width="50.000000" height="50.000000" fill="#FFFFFF" fill-opacity="0"/>
            <g clip-path="url(#clipTilda)">
                <path d="M10 10 L40 10 L40 40 L10 40 Z" fill="#FF5C00"/>
            </g>
        </svg>
    </g>
    <g id="sysadmin">
        <svg width="50.000000" height="50.000000" viewBox="0 0 50 50" fill="none" xmlns="http://www.w3.org/2000/svg">
            <desc>Создано с Pixso.</desc>
            <defs>
                <clipPath id="clipSysadmin">
                    <rect width="50.000000" height="50.000000" fill="white" fill-opacity="0"/>
                </clipPath>
            </defs>
            <rect width="50.000000" height="50.000000" fill="#FFFFFF" fill-opacity="0"/>
            <g clip-path="url(#clipSysadmin)">
                <path d="M10 10 L40 10 L40 40 L10 40 Z" fill="#00BFFF"/>
            </g>
        </svg>
    </g>
    <g id="plc">
        <svg width="50.000000" height="50.000000" viewBox="0 0 50 50" fill="none" xmlns="http://www.w3.org/2000/svg">
            <desc>Создано с Pixso.</desc>
            <defs>
                <clipPath id="clipPLC">
                    <rect width="50.000000" height="50.000000" fill="white" fill-opacity="0"/>
                </clipPath>
            </defs>
            <rect width="50.000000" height="50.000000" fill="#FFFFFF" fill-opacity="0"/>
            <g clip-path="url(#clipPLC)">
                <path d="M10 10 L40 10 L40 40 L10 40 Z" fill="#FF0000"/>
            </g>
        </svg>
    </g>

    <!--    social icons-->
    <a href="https://www.instagram.com/vaniabliudnik/" target="_blank" rel="noopener noreferrer">
        <svg width="25" height="25" viewBox="0 0 25 25" fill="none" xmlns="http://www.w3.org/2000/svg">
            <path id="inst"
                  d="M15.6516 2.09998H5.34844C3.55687 2.09998 2.1 3.55628 2.1 5.34715V8.77799V15.6528C2.1 17.4437 3.55687 18.9 5.34844 18.9H15.6516C17.4431 18.9 18.9 17.4437 18.9 15.6528V8.77143V5.34058C18.8934 3.55628 17.4366 2.09998 15.6516 2.09998ZM16.5834 4.03516H16.9575V4.40251V6.88217L14.1159 6.88873L14.1094 4.04172L16.5834 4.03516ZM8.09812 8.77143C8.63625 8.03016 9.50906 7.53816 10.4934 7.53816C11.4778 7.53816 12.3506 8.0236 12.8887 8.77143C13.2431 9.25687 13.4466 9.85382 13.4466 10.4967C13.4466 12.1236 12.1209 13.4552 10.4869 13.4552C8.85281 13.4552 7.54031 12.1236 7.54031 10.4967C7.54031 9.85382 7.75031 9.25687 8.09812 8.77143ZM17.2594 15.6462C17.2594 16.5318 16.5375 17.2534 15.6516 17.2534H5.34844C4.4625 17.2534 3.74062 16.5318 3.74062 15.6462V8.77143H6.2475C6.03094 9.30279 5.90625 9.88662 5.90625 10.4967C5.90625 13.0288 7.96687 15.0887 10.5 15.0887C13.0331 15.0887 15.0937 13.0288 15.0937 10.4967C15.0937 9.88662 14.9691 9.30279 14.7525 8.77143H17.2594V15.6462Z"
                  fill="#e16216"/>
        </svg>
    </a>
    <a href="https://t.me/@Johny_47" target="_blank" rel="noopener noreferrer">
        <svg width="25" height="25" viewBox="0 0 25 25" fill="none" xmlns="http://www.w3.org/2000/svg">
            <path id="tg"
                  d="M18.9057 4.76449L16.3705 16.7208C16.1791 17.5644 15.6804 17.7745 14.9717 17.3772L11.1085 14.5305L9.24472 16.3235C9.0383 16.5299 8.86608 16.7022 8.46824 16.7022L8.74607 12.7681L15.9054 6.29885C16.2169 6.02162 15.8376 5.86741 15.4218 6.14524L6.57084 11.7186L2.76043 10.5257C1.93174 10.2671 1.91674 9.69701 2.93325 9.29917L17.837 3.55716C18.5271 3.29854 19.1308 3.71018 18.9057 4.76449Z"
                  fill="#e16216"/>
        </svg>
    </a>
    <g id="arrowUp">
        <svg width="16.000000" height="15.000000" viewBox="0 0 30 30" fill="none" xmlns="http://www.w3.org/2000/svg"
             xmlns:xlink="http://www.w3.org/1999/xlink">
            <desc>
                Created with Pixso.
            </desc>
            <defs>
                <clipPath id="clip20_2005">
                    <rect id="btn-go-top" width="30.000000" height="30.000000" fill="white" fill-opacity="0"/>
                </clipPath>
            </defs>
            <rect id="btn-go-top" width="30.000000" height="30.000000" fill="#FFFFFF" fill-opacity="0"/>
            <g clip-path="url(#clip20_2005)">
                <rect id="Rectangle 17" width="30.000000" height="30.000000" fill="#000000" fill-opacity="0.300000"/>
                <path id="Vector"
                      d="M13.8 11.28L13.8 22L16.19 22L16.19 11.28L21.31 16.08L23 14.5L15 7L7 14.5L8.68 16.08L13.8 11.28Z"
                      fill="#e16216" fill-opacity="1.000000" fill-rule="nonzero"/>
            </g>
        </svg>
    </g>
</svg>